<mxfile host="app.diagrams.net" modified="2024-07-04T23:35:46.368Z" agent="Mozilla/5.0 (Windows NT 10.0; Win64; x64) AppleWebKit/537.36 (KHTML, like Gecko) Chrome/126.0.0.0 Safari/537.36" version="24.6.4" etag="3AOIm2qvo9VedWJpuqRf" type="github">
  <diagram name="PÃ¡gina-1" id="2M4oTaw2aAJXLgq9fIwt">
    <mxGraphModel>
      <root>
        <mxCell id="0" />
        <mxCell id="1" parent="0" />
      </root>
    </mxGraphModel>
  </diagram>
</mxfile>
